<mxfile host="65bd71144e">
    <diagram id="HK8oa4b3jJRJ9avYioQm" name="PÃ¡gina-1">
        <mxGraphModel dx="789" dy="980" grid="1" gridSize="10" guides="1" tooltips="1" connect="1" arrows="1" fold="1" page="1" pageScale="1" pageWidth="827" pageHeight="1169" math="0" shadow="0">
            <root>
                <mxCell id="0"/>
                <mxCell id="1" parent="0"/>
                <mxCell id="2" value="Pedido" style="swimlane;fontStyle=0;childLayout=stackLayout;horizontal=1;startSize=40;horizontalStack=0;resizeParent=1;resizeParentMax=0;resizeLast=0;collapsible=1;marginBottom=0;whiteSpace=wrap;html=1;fontSize=14;" vertex="1" parent="1">
                    <mxGeometry x="240" y="40" width="160" height="100" as="geometry"/>
                </mxCell>
                <mxCell id="3" value="preparar()&lt;br&gt;getIngredientes()&lt;br&gt;getValor();" style="text;strokeColor=none;fillColor=none;align=left;verticalAlign=middle;spacingLeft=4;spacingRight=4;overflow=hidden;points=[[0,0.5],[1,0.5]];portConstraint=eastwest;rotatable=0;whiteSpace=wrap;html=1;fontSize=14;" vertex="1" parent="2">
                    <mxGeometry y="40" width="160" height="60" as="geometry"/>
                </mxCell>
                <mxCell id="4" value="HambuguerSimples" style="swimlane;fontStyle=0;childLayout=stackLayout;horizontal=1;startSize=40;horizontalStack=0;resizeParent=1;resizeParentMax=0;resizeLast=0;collapsible=1;marginBottom=0;whiteSpace=wrap;html=1;fontSize=14;" vertex="1" parent="1">
                    <mxGeometry x="80" y="280" width="160" height="180" as="geometry"/>
                </mxCell>
                <mxCell id="26" value="preparar()&lt;br&gt;getIngredientes()&lt;br&gt;getValor()&lt;br&gt;setIngredientes()&lt;br&gt;setValor()" style="text;strokeColor=default;fillColor=none;align=left;verticalAlign=middle;spacingLeft=4;spacingRight=4;overflow=hidden;points=[[0,0.5],[1,0.5]];portConstraint=eastwest;rotatable=0;whiteSpace=wrap;html=1;fontSize=14;" vertex="1" parent="4">
                    <mxGeometry y="40" width="160" height="100" as="geometry"/>
                </mxCell>
                <mxCell id="27" value="ingredientes&lt;br&gt;valor" style="text;strokeColor=none;fillColor=none;align=left;verticalAlign=middle;spacingLeft=4;spacingRight=4;overflow=hidden;points=[[0,0.5],[1,0.5]];portConstraint=eastwest;rotatable=0;whiteSpace=wrap;html=1;fontSize=14;" vertex="1" parent="4">
                    <mxGeometry y="140" width="160" height="40" as="geometry"/>
                </mxCell>
                <mxCell id="6" value="Decorator" style="swimlane;fontStyle=0;childLayout=stackLayout;horizontal=1;startSize=40;horizontalStack=0;resizeParent=1;resizeParentMax=0;resizeLast=0;collapsible=1;marginBottom=0;whiteSpace=wrap;html=1;fontSize=14;" vertex="1" parent="1">
                    <mxGeometry x="400" y="280" width="160" height="150" as="geometry"/>
                </mxCell>
                <mxCell id="24" value="baseDecorator()&lt;br&gt;preparar()&lt;br&gt;getIngredientes()&lt;br&gt;getValor()" style="text;strokeColor=default;fillColor=none;align=left;verticalAlign=middle;spacingLeft=4;spacingRight=4;overflow=hidden;points=[[0,0.5],[1,0.5]];portConstraint=eastwest;rotatable=0;whiteSpace=wrap;html=1;fontSize=14;" vertex="1" parent="6">
                    <mxGeometry y="40" width="160" height="80" as="geometry"/>
                </mxCell>
                <mxCell id="25" value="pedidoDecorator" style="text;strokeColor=none;fillColor=none;align=left;verticalAlign=middle;spacingLeft=4;spacingRight=4;overflow=hidden;points=[[0,0.5],[1,0.5]];portConstraint=eastwest;rotatable=0;whiteSpace=wrap;html=1;fontSize=14;" vertex="1" parent="6">
                    <mxGeometry y="120" width="160" height="30" as="geometry"/>
                </mxCell>
                <mxCell id="8" value="" style="endArrow=none;html=1;fontSize=14;exitX=0.5;exitY=0;exitDx=0;exitDy=0;entryX=0.5;entryY=0;entryDx=0;entryDy=0;rounded=0;" edge="1" parent="1" source="4" target="6">
                    <mxGeometry width="50" height="50" relative="1" as="geometry">
                        <mxPoint x="360" y="430" as="sourcePoint"/>
                        <mxPoint x="410" y="380" as="targetPoint"/>
                        <Array as="points">
                            <mxPoint x="160" y="240"/>
                            <mxPoint x="480" y="240"/>
                        </Array>
                    </mxGeometry>
                </mxCell>
                <mxCell id="9" value="" style="triangle;whiteSpace=wrap;html=1;fontSize=14;rotation=-90;" vertex="1" parent="1">
                    <mxGeometry x="300" y="200" width="40" height="40" as="geometry"/>
                </mxCell>
                <mxCell id="10" value="" style="endArrow=none;html=1;rounded=0;fontSize=14;exitX=1;exitY=0.5;exitDx=0;exitDy=0;entryX=0.5;entryY=0.994;entryDx=0;entryDy=0;entryPerimeter=0;" edge="1" parent="1" source="9" target="3">
                    <mxGeometry width="50" height="50" relative="1" as="geometry">
                        <mxPoint x="280" y="430" as="sourcePoint"/>
                        <mxPoint x="320" y="160" as="targetPoint"/>
                    </mxGeometry>
                </mxCell>
                <mxCell id="11" value="" style="endArrow=block;html=1;rounded=0;fontSize=14;entryX=1;entryY=0.25;entryDx=0;entryDy=0;exitX=1;exitY=0.25;exitDx=0;exitDy=0;startArrow=diamondThin;startFill=0;endSize=11;startSize=20;endFill=1;" edge="1" parent="1" source="6" target="2">
                    <mxGeometry width="50" height="50" relative="1" as="geometry">
                        <mxPoint x="670" y="330" as="sourcePoint"/>
                        <mxPoint x="720" y="280" as="targetPoint"/>
                        <Array as="points">
                            <mxPoint x="680" y="318"/>
                            <mxPoint x="680" y="65"/>
                        </Array>
                    </mxGeometry>
                </mxCell>
                <mxCell id="12" value="component" style="text;html=1;strokeColor=none;fillColor=none;align=center;verticalAlign=middle;whiteSpace=wrap;rounded=0;fontSize=14;" vertex="1" parent="1">
                    <mxGeometry x="600" y="290" width="80" height="20" as="geometry"/>
                </mxCell>
                <mxCell id="14" value="" style="triangle;whiteSpace=wrap;html=1;fontSize=14;rotation=-90;" vertex="1" parent="1">
                    <mxGeometry x="460" y="470" width="40" height="40" as="geometry"/>
                </mxCell>
                <mxCell id="15" value="" style="endArrow=none;html=1;rounded=0;fontSize=14;exitX=1;exitY=0.5;exitDx=0;exitDy=0;entryX=0.497;entryY=1.01;entryDx=0;entryDy=0;entryPerimeter=0;" edge="1" parent="1" source="14" target="25">
                    <mxGeometry width="50" height="50" relative="1" as="geometry">
                        <mxPoint x="440" y="730" as="sourcePoint"/>
                        <mxPoint x="480" y="460" as="targetPoint"/>
                    </mxGeometry>
                </mxCell>
                <mxCell id="29" style="edgeStyle=none;html=1;entryX=0;entryY=0.5;entryDx=0;entryDy=0;endArrow=none;endFill=0;" edge="1" parent="1" source="16" target="14">
                    <mxGeometry relative="1" as="geometry"/>
                </mxCell>
                <mxCell id="16" value="DecoratorAddIngrendiente" style="swimlane;fontStyle=0;childLayout=stackLayout;horizontal=1;startSize=40;horizontalStack=0;resizeParent=1;resizeParentMax=0;resizeLast=0;collapsible=1;marginBottom=0;whiteSpace=wrap;html=1;fontSize=14;" vertex="1" parent="1">
                    <mxGeometry x="390" y="550" width="180" height="200" as="geometry"/>
                </mxCell>
                <mxCell id="28" value="preparar()&lt;br&gt;getIngredientes()&lt;br&gt;getValor()&lt;br&gt;setIngredientes()&lt;br&gt;setValor()" style="text;strokeColor=default;fillColor=none;align=left;verticalAlign=middle;spacingLeft=4;spacingRight=4;overflow=hidden;points=[[0,0.5],[1,0.5]];portConstraint=eastwest;rotatable=0;whiteSpace=wrap;html=1;fontSize=14;" vertex="1" parent="16">
                    <mxGeometry y="40" width="180" height="100" as="geometry"/>
                </mxCell>
                <mxCell id="18" value="pedido&lt;br&gt;ingrediente&lt;br&gt;valor" style="text;strokeColor=none;fillColor=none;align=left;verticalAlign=middle;spacingLeft=4;spacingRight=4;overflow=hidden;points=[[0,0.5],[1,0.5]];portConstraint=eastwest;rotatable=0;whiteSpace=wrap;html=1;fontSize=14;" vertex="1" parent="16">
                    <mxGeometry y="140" width="180" height="60" as="geometry"/>
                </mxCell>
            </root>
        </mxGraphModel>
    </diagram>
</mxfile>